<svg xmlns="http://www.w3.org/2000/svg" width="35" height="35" viewBox="0 0 35 35" fill="none"><path d="M29.7472 11.9063L23.9112 16.8143L29.3074 15.6898L28.4938 20.0819L18.946 23.7861L27.9968 22.9306L27.4515 27.0934L17.2396 29.7965L27.1964 30.0391L26.5103 34.0607L0 35C0 35 0.013194 34.9956 0.0175919 34.9912C10.6121 27.5652 28.0452 6.83949 31.1677 0L29.7472 11.9063Z" fill="#00AFAA"/><path d="M31.1677 0C28.0452 6.83949 10.6121 27.5652 0.0175919 34.9912C0.013194 34.9956 0.00439787 34.9956 0 35L1.25339 24.84L5.84477 25.9645L1.33255 21.837L2.61673 14.4374L9.72368 17.5022L3.39076 9.18987L4.3275 0.80257L8.37354 0.718786L11.8347 7.69938L11.9182 0.661459L17.8905 0.542396L18.924 8.73567L22.3412 0.286633L31.1677 0Z" fill="#1D938D"/></svg>